<svg width="534" height="128" viewBox="0 0 534 128" fill="none" xmlns="http://www.w3.org/2000/svg">
<g clip-path="url(#clip0_1_2)">
<path d="M22.016 107H5.312V106.744C11.072 106.744 10.624 104.504 10.624 99.384V62.456H9.856C3.712 62.456 0.64 68.856 0.256 74.232H0L0.64 62.008H0.704C1.216 62.264 2.112 62.2 2.624 62.2H24.704C25.216 62.2 26.112 62.264 26.624 62.008H26.688L27.328 74.232H27.072C26.688 68.088 23.488 62.456 16.704 62.456V99.384C16.704 104.504 16.256 106.744 22.016 106.744V107ZM64.563 107H47.859V106.744C53.171 106.744 53.171 104.12 53.171 99.704V82.552C53.171 79.416 51.635 75.896 47.987 75.896C45.683 75.896 42.739 77.368 41.267 79.16V101.816C41.267 105.4 42.099 106.744 45.939 106.744V107H29.875V106.744C34.419 106.744 35.187 105.528 35.187 101.304V68.152C35.187 63.352 34.867 62.456 29.875 62.456V62.2H37.427C39.795 62.2 41.267 63.416 41.267 65.848V78.712C43.379 76.216 47.411 74.872 50.611 74.872C55.027 74.872 59.251 77.56 59.251 82.36V101.304C59.251 105.528 60.019 106.744 64.563 106.744V107ZM89.7785 99.448H89.9705C89.0745 104.44 84.3385 107.064 79.6025 107.064C70.5785 107.064 65.8425 99.512 65.8425 91.192C65.8425 83.064 70.4505 74.808 79.4745 74.808C84.9785 74.808 89.7145 78.072 89.7145 83.96C89.7145 91.768 82.3545 95.736 75.3785 95.736C74.4825 95.736 73.6505 95.672 72.8185 95.544C74.0985 100.6 77.2985 105.08 82.9305 105.08C86.3865 105.08 89.1385 102.84 89.7785 99.448ZM72.7545 95.288C73.1385 95.352 73.5865 95.352 73.9705 95.352C80.8185 95.352 84.0825 88.248 84.0825 82.296C84.0825 79.8 83.3145 75.064 79.9865 75.064C73.8425 75.064 72.1145 84.792 72.1145 89.4C72.1145 91.384 72.3065 93.368 72.7545 95.288ZM136.127 99.192L136.382 99.32C133.375 103.864 127.935 107.32 122.367 107.32C110.463 107.32 105.343 95.288 105.343 84.984C105.343 74.296 110.783 61.88 123.071 61.88C129.599 61.88 135.487 65.144 135.487 72.312C135.487 76.92 132.415 81.976 127.295 81.976C126.783 81.976 126.207 81.912 125.631 81.784V81.592C129.215 81.272 130.239 75.448 130.239 72.632C130.239 68.216 128.191 62.2 122.815 62.2C114.047 62.2 111.487 76.536 111.487 83.256C111.487 92.536 115.135 104.376 126.335 104.376C130.111 104.376 133.951 102.328 136.127 99.192ZM154.505 107.192C145.225 107.192 139.657 99.832 139.657 91C139.657 82.168 145.225 74.808 154.505 74.808C163.785 74.808 169.353 82.168 169.353 91C169.353 99.832 163.785 107.192 154.505 107.192ZM153.673 106.872C160.969 106.872 163.145 94.136 163.145 88.76C163.145 83.832 161.737 75.064 155.208 75.064C147.849 75.064 145.801 87.224 145.801 92.664C145.801 97.464 147.209 106.872 153.673 106.872ZM205.009 107H194.257V101.816C192.529 105.08 188.945 107.064 185.297 107.064C176.721 107.064 173.905 98.04 173.905 90.936C173.905 83.576 177.873 74.616 186.321 74.616C189.585 74.616 192.337 75.704 194.257 78.392V68.152C194.257 63.352 193.937 62.456 188.945 62.456V62.2H196.497C198.865 62.2 200.337 63.416 200.337 65.848V101.816C200.337 105.4 201.169 106.744 205.009 106.744V107ZM194.257 101.304V78.84C192.913 76.856 190.865 75.896 188.497 75.896C181.905 75.896 180.177 84.92 180.177 90.04C180.177 94.84 181.265 105.592 188.049 105.592C190.801 105.592 193.105 103.608 194.257 101.304ZM230.841 99.448H231.033C230.137 104.44 225.401 107.064 220.665 107.064C211.641 107.064 206.905 99.512 206.905 91.192C206.905 83.064 211.513 74.808 220.537 74.808C226.041 74.808 230.777 78.072 230.777 83.96C230.777 91.768 223.417 95.736 216.441 95.736C215.545 95.736 214.713 95.672 213.881 95.544C215.161 100.6 218.361 105.08 223.993 105.08C227.449 105.08 230.201 102.84 230.841 99.448ZM213.817 95.288C214.201 95.352 214.649 95.352 215.033 95.352C221.881 95.352 225.145 88.248 225.145 82.296C225.145 79.8 224.377 75.064 221.049 75.064C214.905 75.064 213.177 84.792 213.177 89.4C213.177 91.384 213.369 93.368 213.817 95.288Z" fill="#8E8E93"/>
<path d="M311.656 58.128C312.253 57.9573 313.064 57.68 314.088 57.296C315.155 56.8693 316.285 56.3573 317.48 55.76C318.675 55.1627 319.891 54.48 321.128 53.712C322.365 52.9013 323.475 52.0267 324.456 51.088C325.48 50.1067 326.291 49.0613 326.888 47.952C327.528 46.8427 327.848 45.6693 327.848 44.432C327.848 42.7253 327.315 41.424 326.248 40.528C325.224 39.632 323.965 39.0347 322.472 38.736C320.979 38.3947 319.4 38.2667 317.736 38.352C316.072 38.4373 314.643 38.6293 313.448 38.928C310.035 39.696 306.728 40.7413 303.528 42.064C300.328 43.344 297.277 44.752 294.376 46.288C291.475 47.824 288.744 49.4453 286.184 51.152C283.667 52.816 281.384 54.416 279.336 55.952C277.288 57.4453 275.517 58.8107 274.024 60.048C272.531 61.2853 271.379 62.2453 270.568 62.928C267.624 65.5733 264.701 68.5173 261.8 71.76C258.941 75.0027 256.381 78.4587 254.12 82.128C251.859 85.7547 250.024 89.5093 248.616 93.392C247.251 97.2747 246.568 101.179 246.568 105.104C246.568 108.048 247.08 110.672 248.104 112.976C249.171 115.323 250.771 117.157 252.904 118.48C255.891 120.357 259.112 121.424 262.568 121.68C266.024 121.936 269.48 121.509 272.936 120.4C275.539 119.547 278.141 118.373 280.744 116.88C283.389 115.387 286.013 113.659 288.616 111.696C291.261 109.733 293.907 107.579 296.552 105.232C299.197 102.843 301.864 100.304 304.552 97.616L312.808 96.528C310.931 98.2347 308.883 100.091 306.664 102.096C304.488 104.101 302.184 106.128 299.752 108.176C297.32 110.267 294.803 112.293 292.2 114.256C289.597 116.261 286.931 118.075 284.2 119.696C281.512 121.317 278.781 122.704 276.008 123.856C273.235 125.051 270.483 125.861 267.752 126.288C264.424 126.8 261.032 126.587 257.576 125.648C254.12 124.709 251.005 123.173 248.232 121.04C245.928 118.992 244.264 116.624 243.24 113.936C242.259 111.248 241.768 108.389 241.768 105.36C241.768 100.496 242.643 95.7387 244.392 91.088C246.184 86.3947 248.509 81.936 251.368 77.712C254.227 73.4453 257.469 69.4347 261.096 65.68C264.723 61.9253 268.413 58.512 272.168 55.44C274.771 53.392 277.523 51.4293 280.424 49.552C283.325 47.632 286.269 45.8613 289.256 44.24C292.285 42.6187 295.293 41.1467 298.28 39.824C301.267 38.4587 304.168 37.328 306.984 36.432C308.008 36.0907 309.352 35.7707 311.016 35.472C312.723 35.1307 314.515 34.9173 316.392 34.832C318.269 34.7467 320.168 34.8107 322.088 35.024C324.008 35.1947 325.736 35.6213 327.272 36.304C328.851 36.9867 330.131 37.9467 331.112 39.184C332.093 40.4213 332.605 42.0427 332.648 44.048C332.691 45.9253 332.2 47.7173 331.176 49.424C330.152 51.088 328.829 52.6667 327.208 54.16C325.587 55.6107 323.795 56.9333 321.832 58.128C319.912 59.3227 318.035 60.3893 316.2 61.328C314.408 62.224 312.787 62.9493 311.336 63.504C309.885 64.0587 308.883 64.4213 308.328 64.592L311.656 58.128ZM335.071 81.936C336.01 82.192 336.671 82.5973 337.055 83.152C337.439 83.664 337.631 84.3253 337.631 85.136C337.631 86.1173 337.375 87.184 336.863 88.336C336.394 89.4453 335.775 90.5547 335.007 91.664C334.282 92.7307 333.492 93.7547 332.639 94.736C331.786 95.7173 331.018 96.5493 330.335 97.232C330.292 97.744 330.335 98.128 330.463 98.384C330.591 98.5973 330.932 98.5333 331.487 98.192C332.468 97.68 333.343 97.1467 334.111 96.592C334.879 95.9947 335.562 95.4827 336.159 95.056L338.335 93.584L338.719 97.68L337.183 98.832C336.458 99.3867 335.583 100.005 334.559 100.688C333.578 101.328 332.596 101.883 331.615 102.352C330.89 102.736 330.207 102.928 329.567 102.928C328.842 102.928 328.202 102.736 327.647 102.352C327.135 101.925 326.687 101.349 326.303 100.624C325.535 101.264 324.682 101.925 323.743 102.608C322.804 103.248 321.866 103.824 320.927 104.336C319.988 104.848 319.05 105.275 318.111 105.616C317.215 105.957 316.383 106.128 315.615 106.128C314.591 106.128 313.759 105.765 313.119 105.04C312.436 104.315 312.095 103.419 312.095 102.352C312.095 101.456 312.308 100.453 312.735 99.344C313.119 98.192 313.674 97.0187 314.399 95.824C315.124 94.6293 315.978 93.4347 316.959 92.24C317.94 91.0027 318.986 89.8507 320.095 88.784C321.29 87.6747 322.548 86.6507 323.871 85.712C325.236 84.7307 326.58 83.92 327.903 83.28C329.226 82.64 330.506 82.192 331.743 81.936C332.98 81.68 334.09 81.68 335.071 81.936ZM330.335 90C330.463 90.2987 330.57 90.576 330.655 90.832C331.466 89.7653 332.084 88.8267 332.511 88.016C333.108 86.608 333.215 85.7973 332.831 85.584C332.49 85.328 331.572 85.5627 330.079 86.288C327.732 87.44 325.599 88.976 323.679 90.896C321.759 92.7733 319.924 94.9493 318.175 97.424C317.236 98.832 316.639 99.8773 316.383 100.56C316.17 101.243 316.17 101.691 316.383 101.904C316.639 102.075 317.066 102.053 317.663 101.84C318.303 101.584 319.028 101.221 319.839 100.752C320.65 100.24 321.503 99.6427 322.399 98.96C323.295 98.2773 324.127 97.5947 324.895 96.912C324.852 96.5707 324.81 96.2507 324.767 95.952C324.767 95.6107 324.767 95.2693 324.767 94.928C324.767 94.032 324.874 93.2 325.087 92.432C325.3 91.664 325.556 91.0027 325.855 90.448C326.196 89.8507 326.58 89.3813 327.007 89.04C327.434 88.6987 327.86 88.528 328.287 88.528C329.098 88.528 329.78 88.9973 330.335 89.936V90ZM352.661 103.888C352.533 102.907 352.682 101.819 353.109 100.624C353.536 99.4293 354.09 98.2133 354.773 96.976C355.498 95.7387 356.288 94.5227 357.141 93.328C358.037 92.1333 358.848 91.0453 359.573 90.064L360.021 89.424C358.869 90.4053 357.653 91.5147 356.373 92.752C355.136 93.9893 353.877 95.184 352.597 96.336C350.592 98.256 348.608 100.155 346.645 102.032C344.682 103.867 342.826 105.467 341.077 106.832C340.48 107.131 339.861 107.067 339.221 106.64C338.624 106.256 338.325 105.68 338.325 104.912C338.922 103.589 339.626 102.16 340.437 100.624C341.29 99.0453 342.144 97.5093 342.997 96.016L344.469 93.392C343.786 93.9467 342.848 94.672 341.653 95.568C340.501 96.464 338.837 97.7013 336.661 99.28L335.829 95.376C339.114 93.0293 341.802 90.7893 343.893 88.656C346.026 86.48 347.904 84.4747 349.525 82.64C350.208 81.744 350.912 81.168 351.637 80.912C352.362 80.6133 352.938 80.6133 353.365 80.912C353.834 81.168 354.09 81.7013 354.133 82.512C354.176 83.3227 353.856 84.3467 353.173 85.584C352.746 86.3093 352.341 87.0133 351.957 87.696C351.616 88.336 351.253 89.0187 350.869 89.744C350.528 90.4267 350.144 91.1733 349.717 91.984C349.333 92.7947 348.885 93.712 348.373 94.736C349.397 93.7547 350.506 92.7093 351.701 91.6C352.896 90.4907 354.069 89.424 355.221 88.4C356.373 87.376 357.461 86.4587 358.485 85.648C359.509 84.7947 360.384 84.1333 361.109 83.664V83.728C361.92 83.216 362.773 82.9387 363.669 82.896C364.565 82.8107 365.312 82.9387 365.909 83.28C366.506 83.5787 366.869 84.0907 366.997 84.816C367.125 85.5413 366.848 86.4587 366.165 87.568C365.696 88.464 365.077 89.4667 364.309 90.576C363.541 91.6853 362.752 92.7947 361.941 93.904C360.874 95.3547 359.914 96.6987 359.061 97.936C358.208 99.1733 357.717 100.261 357.589 101.2C357.674 101.2 358.229 100.88 359.253 100.24C360.277 99.6 361.429 98.8533 362.709 98C363.989 97.1467 365.248 96.2933 366.485 95.44C367.722 94.5867 368.597 93.968 369.109 93.584L369.493 97.68L367.381 99.216C366.613 99.7707 365.76 100.389 364.821 101.072C363.882 101.755 362.922 102.416 361.941 103.056C361.002 103.696 360.085 104.272 359.189 104.784C358.293 105.296 357.482 105.68 356.757 105.936C356.117 106.107 355.37 106.043 354.517 105.744C353.664 105.445 353.066 104.869 352.725 104.016L352.661 103.888ZM383.411 103.888C383.283 102.907 383.432 101.819 383.859 100.624C384.286 99.4293 384.84 98.2133 385.523 96.976C386.248 95.7387 387.038 94.5227 387.891 93.328C388.787 92.1333 389.598 91.0453 390.323 90.064L390.771 89.424C389.619 90.4053 388.403 91.5147 387.123 92.752C385.886 93.9893 384.627 95.184 383.347 96.336C381.342 98.256 379.358 100.155 377.395 102.032C375.432 103.867 373.576 105.467 371.827 106.832C371.23 107.131 370.611 107.067 369.971 106.64C369.374 106.256 369.075 105.68 369.075 104.912C369.672 103.589 370.376 102.16 371.187 100.624C372.04 99.0453 372.894 97.5093 373.747 96.016L375.219 93.392C374.536 93.9467 373.598 94.672 372.403 95.568C371.251 96.464 369.587 97.7013 367.411 99.28L366.579 95.376C369.864 93.0293 372.552 90.7893 374.643 88.656C376.776 86.48 378.654 84.4747 380.275 82.64C380.958 81.744 381.662 81.168 382.387 80.912C383.112 80.6133 383.688 80.6133 384.115 80.912C384.584 81.168 384.84 81.7013 384.883 82.512C384.926 83.3227 384.606 84.3467 383.923 85.584C383.496 86.3093 383.091 87.0133 382.707 87.696C382.366 88.336 382.003 89.0187 381.619 89.744C381.278 90.4267 380.894 91.1733 380.467 91.984C380.083 92.7947 379.635 93.712 379.123 94.736C380.147 93.7547 381.256 92.7093 382.451 91.6C383.646 90.4907 384.819 89.424 385.971 88.4C387.123 87.376 388.211 86.4587 389.235 85.648C390.259 84.7947 391.134 84.1333 391.859 83.664V83.728C392.67 83.216 393.523 82.9387 394.419 82.896C395.315 82.8107 396.062 82.9387 396.659 83.28C397.256 83.5787 397.619 84.0907 397.747 84.816C397.875 85.5413 397.598 86.4587 396.915 87.568C396.446 88.464 395.827 89.4667 395.059 90.576C394.291 91.6853 393.502 92.7947 392.691 93.904C391.624 95.3547 390.664 96.6987 389.811 97.936C388.958 99.1733 388.467 100.261 388.339 101.2C388.424 101.2 388.979 100.88 390.003 100.24C391.027 99.6 392.179 98.8533 393.459 98C394.739 97.1467 395.998 96.2933 397.235 95.44C398.472 94.5867 399.347 93.968 399.859 93.584L400.243 97.68L398.131 99.216C397.363 99.7707 396.51 100.389 395.571 101.072C394.632 101.755 393.672 102.416 392.691 103.056C391.752 103.696 390.835 104.272 389.939 104.784C389.043 105.296 388.232 105.68 387.507 105.936C386.867 106.107 386.12 106.043 385.267 105.744C384.414 105.445 383.816 104.869 383.475 104.016L383.411 103.888ZM418.321 81.936C419.26 82.192 419.921 82.5973 420.305 83.152C420.689 83.664 420.881 84.3253 420.881 85.136C420.881 86.1173 420.625 87.184 420.113 88.336C419.644 89.4453 419.025 90.5547 418.257 91.664C417.532 92.7307 416.742 93.7547 415.889 94.736C415.036 95.7173 414.268 96.5493 413.585 97.232C413.542 97.744 413.585 98.128 413.713 98.384C413.841 98.5973 414.182 98.5333 414.737 98.192C415.718 97.68 416.593 97.1467 417.361 96.592C418.129 95.9947 418.812 95.4827 419.409 95.056L421.585 93.584L421.969 97.68L420.433 98.832C419.708 99.3867 418.833 100.005 417.809 100.688C416.828 101.328 415.846 101.883 414.865 102.352C414.14 102.736 413.457 102.928 412.817 102.928C412.092 102.928 411.452 102.736 410.897 102.352C410.385 101.925 409.937 101.349 409.553 100.624C408.785 101.264 407.932 101.925 406.993 102.608C406.054 103.248 405.116 103.824 404.177 104.336C403.238 104.848 402.3 105.275 401.361 105.616C400.465 105.957 399.633 106.128 398.865 106.128C397.841 106.128 397.009 105.765 396.369 105.04C395.686 104.315 395.345 103.419 395.345 102.352C395.345 101.456 395.558 100.453 395.985 99.344C396.369 98.192 396.924 97.0187 397.649 95.824C398.374 94.6293 399.228 93.4347 400.209 92.24C401.19 91.0027 402.236 89.8507 403.345 88.784C404.54 87.6747 405.798 86.6507 407.121 85.712C408.486 84.7307 409.83 83.92 411.153 83.28C412.476 82.64 413.756 82.192 414.993 81.936C416.23 81.68 417.34 81.68 418.321 81.936ZM413.585 90C413.713 90.2987 413.82 90.576 413.905 90.832C414.716 89.7653 415.334 88.8267 415.761 88.016C416.358 86.608 416.465 85.7973 416.081 85.584C415.74 85.328 414.822 85.5627 413.329 86.288C410.982 87.44 408.849 88.976 406.929 90.896C405.009 92.7733 403.174 94.9493 401.425 97.424C400.486 98.832 399.889 99.8773 399.633 100.56C399.42 101.243 399.42 101.691 399.633 101.904C399.889 102.075 400.316 102.053 400.913 101.84C401.553 101.584 402.278 101.221 403.089 100.752C403.9 100.24 404.753 99.6427 405.649 98.96C406.545 98.2773 407.377 97.5947 408.145 96.912C408.102 96.5707 408.06 96.2507 408.017 95.952C408.017 95.6107 408.017 95.2693 408.017 94.928C408.017 94.032 408.124 93.2 408.337 92.432C408.55 91.664 408.806 91.0027 409.105 90.448C409.446 89.8507 409.83 89.3813 410.257 89.04C410.684 88.6987 411.11 88.528 411.537 88.528C412.348 88.528 413.03 88.9973 413.585 89.936V90ZM423.111 100.816C423.538 100.603 424.05 100.304 424.647 99.92C425.287 99.4933 425.948 99.0453 426.631 98.576C427.314 98.1067 427.996 97.6373 428.679 97.168C429.404 96.656 430.066 96.1867 430.663 95.76C431.132 95.4187 431.708 95.0347 432.391 94.608C433.116 94.1387 433.628 93.7973 433.927 93.584L434.311 97.68C433.927 97.936 433.458 98.2773 432.903 98.704C432.391 99.088 431.858 99.4933 431.303 99.92C429.938 100.987 428.444 102.075 426.823 103.184C425.202 104.293 423.794 105.083 422.599 105.552C421.618 105.851 420.807 105.893 420.167 105.68C419.527 105.424 419.036 105.019 418.695 104.464C418.354 103.867 418.183 103.184 418.183 102.416C418.14 101.605 418.226 100.795 418.439 99.984C418.908 98.32 419.612 96.6133 420.551 94.864C421.49 93.1147 422.492 91.4293 423.559 89.808C424.668 88.1867 425.756 86.672 426.823 85.264C427.932 83.856 428.892 82.6613 429.703 81.68H435.207C434.78 82.064 434.204 82.6613 433.479 83.472C432.754 84.2827 431.964 85.2427 431.111 86.352C430.3 87.4187 429.447 88.5707 428.551 89.808C427.655 91.0453 426.823 92.304 426.055 93.584C425.287 94.8213 424.604 96.016 424.007 97.168C423.452 98.32 423.047 99.344 422.791 100.24C422.706 100.496 422.684 100.688 422.727 100.816C422.77 100.944 422.898 100.944 423.111 100.816ZM433.159 73.68C433.159 72.5707 433.543 71.6107 434.311 70.8C435.122 69.9893 436.103 69.584 437.255 69.584C438.364 69.584 439.324 69.9893 440.135 70.8C440.946 71.6107 441.351 72.5707 441.351 73.68C441.351 74.832 440.946 75.8133 440.135 76.624C439.324 77.392 438.364 77.776 437.255 77.776C436.103 77.776 435.122 77.392 434.311 76.624C433.543 75.8133 433.159 74.832 433.159 73.68ZM430.753 96.016C431.905 95.12 432.844 94.3947 433.569 93.84C434.294 93.2427 434.934 92.7093 435.489 92.24C436.044 91.728 436.577 91.216 437.089 90.704C437.644 90.192 438.284 89.5733 439.009 88.848C439.862 87.8667 440.673 86.864 441.441 85.84C442.209 84.816 443.062 83.8133 444.001 82.832C444.385 82.448 444.833 82.0427 445.345 81.616C445.9 81.1467 446.433 80.7627 446.945 80.464C447.5 80.1227 448.033 79.9093 448.545 79.824C449.057 79.696 449.484 79.7813 449.825 80.08H449.761C449.974 80.208 450.124 80.464 450.209 80.848C450.337 81.1893 450.358 81.6373 450.273 82.192C450.188 82.704 449.953 83.3013 449.569 83.984C449.228 84.624 448.694 85.328 447.969 86.096H448.033C447.308 86.9493 446.625 87.696 445.985 88.336C445.388 88.9333 444.854 89.424 444.385 89.808C443.958 90.2347 443.66 90.5547 443.489 90.768C443.361 90.9387 443.318 91.1947 443.361 91.536C443.404 91.792 443.574 92.1973 443.873 92.752C444.172 93.3067 444.684 93.9893 445.409 94.8C445.793 95.2693 446.134 95.76 446.433 96.272C446.774 96.784 446.988 97.3387 447.073 97.936L448.353 97.104H448.289L453.793 93.2L454.177 97.296L452.641 98.384C451.788 98.9813 450.785 99.728 449.633 100.624C448.524 101.477 447.329 102.309 446.049 103.12C444.812 103.931 443.532 104.635 442.209 105.232C440.929 105.787 439.713 106.064 438.561 106.064C437.153 106.064 435.809 105.68 434.529 104.912C434.358 104.784 434.124 104.571 433.825 104.272C433.569 103.973 433.334 103.611 433.121 103.184C432.95 102.757 432.844 102.309 432.801 101.84C432.801 101.371 432.993 100.901 433.377 100.432C433.548 100.261 433.804 100.112 434.145 99.984C434.529 99.856 434.934 99.8133 435.361 99.856C435.83 99.8987 436.3 100.027 436.769 100.24C437.238 100.453 437.665 100.795 438.049 101.264C438.433 101.776 438.924 102.053 439.521 102.096C440.161 102.096 440.737 101.947 441.249 101.648C441.804 101.307 442.23 100.859 442.529 100.304C442.828 99.7493 442.892 99.1947 442.721 98.64C442.465 97.8293 441.974 96.9973 441.249 96.144C440.566 95.248 440.012 94.3947 439.585 93.584L439.649 93.52L437.473 95.44C436.876 95.952 436.214 96.464 435.489 96.976C434.764 97.488 433.718 98.2133 432.353 99.152L430.753 96.016ZM449.941 96.016C451.093 95.12 452.031 94.3947 452.757 93.84C453.482 93.2427 454.122 92.7093 454.677 92.24C455.231 91.728 455.765 91.216 456.277 90.704C456.831 90.192 457.471 89.5733 458.197 88.848C459.05 87.8667 459.861 86.864 460.629 85.84C461.397 84.816 462.25 83.8133 463.189 82.832C463.573 82.448 464.021 82.0427 464.533 81.616C465.087 81.1467 465.621 80.7627 466.133 80.464C466.687 80.1227 467.221 79.9093 467.733 79.824C468.245 79.696 468.671 79.7813 469.013 80.08H468.949C469.162 80.208 469.311 80.464 469.397 80.848C469.525 81.1893 469.546 81.6373 469.461 82.192C469.375 82.704 469.141 83.3013 468.757 83.984C468.415 84.624 467.882 85.328 467.157 86.096H467.221C466.495 86.9493 465.813 87.696 465.173 88.336C464.575 88.9333 464.042 89.424 463.573 89.808C463.146 90.2347 462.847 90.5547 462.677 90.768C462.549 90.9387 462.506 91.1947 462.549 91.536C462.591 91.792 462.762 92.1973 463.061 92.752C463.359 93.3067 463.871 93.9893 464.597 94.8C464.981 95.2693 465.322 95.76 465.621 96.272C465.962 96.784 466.175 97.3387 466.26 97.936L467.541 97.104H467.477L472.981 93.2L473.365 97.296L471.829 98.384C470.975 98.9813 469.973 99.728 468.821 100.624C467.711 101.477 466.517 102.309 465.237 103.12C463.999 103.931 462.719 104.635 461.397 105.232C460.117 105.787 458.901 106.064 457.749 106.064C456.341 106.064 454.997 105.68 453.717 104.912C453.546 104.784 453.311 104.571 453.013 104.272C452.757 103.973 452.522 103.611 452.309 103.184C452.138 102.757 452.031 102.309 451.989 101.84C451.989 101.371 452.181 100.901 452.565 100.432C452.735 100.261 452.991 100.112 453.333 99.984C453.717 99.856 454.122 99.8133 454.549 99.856C455.018 99.8987 455.487 100.027 455.957 100.24C456.426 100.453 456.853 100.795 457.237 101.264C457.621 101.776 458.111 102.053 458.709 102.096C459.349 102.096 459.925 101.947 460.437 101.648C460.991 101.307 461.418 100.859 461.717 100.304C462.015 99.7493 462.079 99.1947 461.909 98.64C461.653 97.8293 461.162 96.9973 460.437 96.144C459.754 95.248 459.199 94.3947 458.773 93.584L458.837 93.52L456.661 95.44C456.063 95.952 455.402 96.464 454.677 96.976C453.951 97.488 452.906 98.2133 451.541 99.152L449.941 96.016ZM487.24 88.72C486.643 89.488 485.789 90.2987 484.68 91.152C483.613 92.0053 482.44 92.8587 481.16 93.712C479.88 94.5227 478.557 95.312 477.192 96.08C475.869 96.848 474.653 97.5093 473.544 98.064C473.117 98.96 472.861 99.7493 472.776 100.432C472.691 101.072 472.776 101.584 473.032 101.968C473.288 102.309 473.715 102.48 474.312 102.48C474.952 102.48 475.784 102.224 476.808 101.712V101.776C477.747 101.435 478.749 100.965 479.816 100.368C480.925 99.7707 482.035 99.1093 483.144 98.384C484.296 97.6587 485.448 96.912 486.6 96.144C487.752 95.3333 488.84 94.544 489.864 93.776L490.696 97.488C489.331 98.512 487.901 99.5573 486.408 100.624C484.957 101.648 483.507 102.587 482.056 103.44C480.605 104.293 479.176 104.997 477.768 105.552C476.36 106.064 475.016 106.32 473.736 106.32C472.541 106.32 471.581 106.043 470.856 105.488C470.131 104.933 469.597 104.229 469.256 103.376C468.957 102.523 468.829 101.563 468.872 100.496C468.872 99.3867 469.043 98.2987 469.384 97.232C469.811 96.0373 470.493 94.6293 471.432 93.008C472.371 91.344 473.459 89.744 474.696 88.208C475.976 86.672 477.363 85.3067 478.856 84.112C480.392 82.9173 481.971 82.1707 483.592 81.872C484.573 81.7013 485.427 81.8293 486.152 82.256C486.92 82.64 487.496 83.1947 487.88 83.92C488.264 84.6027 488.413 85.392 488.328 86.288C488.243 87.1413 487.88 87.952 487.24 88.72ZM481.352 87.12C480.243 88.1867 479.368 89.0613 478.728 89.744C478.131 90.4267 477.576 91.1307 477.064 91.856C477.747 91.472 478.408 91.0667 479.048 90.64C479.731 90.2133 480.392 89.7653 481.032 89.296C481.885 88.6133 482.632 87.9307 483.272 87.248C483.912 86.5653 484.253 85.9467 484.296 85.392C484.296 85.264 483.805 85.4773 482.824 86.032C482.611 86.16 482.376 86.3307 482.12 86.544C481.864 86.7573 481.608 86.9707 481.352 87.184V87.12ZM488.862 95.12C489.502 94.096 490.249 93.0293 491.102 91.92C491.998 90.768 492.915 89.6373 493.854 88.528C494.835 87.4187 495.838 86.352 496.862 85.328C497.886 84.304 498.91 83.344 499.934 82.448C500.19 82.3627 500.574 82.2987 501.086 82.256C501.641 82.1707 502.195 82.1493 502.75 82.192C503.305 82.2347 503.795 82.3413 504.222 82.512C504.649 82.6827 504.905 82.96 504.99 83.344C503.838 84.1547 502.643 85.1787 501.406 86.416C500.169 87.6107 498.995 88.8267 497.886 90.064C496.777 91.3013 495.795 92.4533 494.942 93.52C494.089 94.544 493.491 95.312 493.15 95.824V95.76C492.425 96.8693 491.742 98 491.102 99.152C490.505 100.261 490.27 101.072 490.398 101.584C490.569 101.755 491.038 101.563 491.806 101.008C492.617 100.453 493.598 99.664 494.75 98.64C495.902 97.5733 497.161 96.3787 498.526 95.056C499.891 93.7333 501.235 92.4107 502.558 91.088C503.881 89.7227 505.118 88.4427 506.27 87.248C507.422 86.0107 508.382 85.008 509.15 84.24L510.814 82.512H515.806C514.569 83.8773 513.459 85.0933 512.478 86.16C511.497 87.184 510.579 88.144 509.726 89.04C508.915 89.936 508.147 90.768 507.422 91.536C506.697 92.304 505.993 93.072 505.31 93.84C504.883 94.3947 504.35 95.1413 503.71 96.08C503.113 96.976 502.558 97.8507 502.046 98.704C501.577 99.5147 501.257 100.176 501.086 100.688C500.915 101.157 501.086 101.221 501.598 100.88H501.534L512.35 93.584L512.734 97.68L511.902 98.32C511.177 98.832 510.302 99.4507 509.278 100.176C508.254 100.901 507.187 101.627 506.078 102.352C504.969 103.035 503.881 103.675 502.814 104.272C501.79 104.869 500.915 105.296 500.19 105.552C498.825 106.021 497.886 106.043 497.374 105.616C496.862 105.189 496.606 104.549 496.606 103.696C496.606 103.483 496.606 103.248 496.606 102.992C496.649 102.693 496.713 102.416 496.798 102.16C496.286 102.544 495.731 102.971 495.134 103.44C494.579 103.867 493.982 104.272 493.342 104.656C492.702 105.04 492.041 105.36 491.358 105.616C490.675 105.829 489.95 105.936 489.182 105.936C488.713 105.936 488.265 105.851 487.838 105.68C487.411 105.467 487.049 105.189 486.75 104.848C486.537 104.507 486.366 104.123 486.238 103.696C486.11 103.269 486.046 102.821 486.046 102.352C486.046 101.371 486.302 100.261 486.814 99.024C487.326 97.7867 488.009 96.4853 488.862 95.12ZM510.28 95.12C512.2 93.6267 513.907 92.24 515.4 90.96C516.893 89.68 518.323 88.2933 519.688 86.8C519.645 86.2027 519.816 85.5413 520.2 84.816C520.627 84.048 521.096 83.344 521.608 82.704C522.163 82.0213 522.739 81.4453 523.336 80.976C523.933 80.5067 524.403 80.272 524.744 80.272C525.128 80.4 525.405 80.656 525.576 81.04C525.747 81.3813 525.832 81.808 525.832 82.32C525.832 82.7893 525.747 83.3013 525.576 83.856C525.405 84.4107 525.192 84.944 524.936 85.456C524.68 85.8827 524.424 86.2667 524.168 86.608C523.912 86.9067 523.656 87.1627 523.4 87.376C523.4 87.632 523.464 87.888 523.592 88.144C523.72 88.3573 523.933 88.4427 524.232 88.4C525.853 88.4 527.197 87.8667 528.264 86.8C528.563 86.544 528.861 86.3093 529.16 86.096C529.459 85.84 529.715 85.6907 529.928 85.648C530.184 85.6053 530.376 85.6907 530.504 85.904C530.675 86.0747 530.781 86.4587 530.824 87.056C530.867 87.44 530.888 87.824 530.888 88.208C530.931 88.5493 530.909 88.8907 530.824 89.232C530.227 90.0427 529.523 90.8747 528.712 91.728C527.944 92.5387 527.133 93.3707 526.28 94.224C525.213 95.3333 524.168 96.4427 523.144 97.552C522.12 98.6613 521.224 99.792 520.456 100.944C519.987 101.541 519.752 102.011 519.752 102.352C519.752 102.48 520.221 102.331 521.16 101.904C521.8 101.563 522.504 101.136 523.272 100.624C524.04 100.112 524.808 99.5787 525.576 99.024C526.344 98.4267 527.091 97.8507 527.816 97.296C528.584 96.7413 529.267 96.2293 529.864 95.76L532.872 93.52L533.192 97.616C532.893 97.872 532.296 98.3627 531.4 99.088C530.547 99.7707 529.544 100.539 528.392 101.392C527.283 102.203 526.109 103.013 524.872 103.824C523.635 104.635 522.525 105.275 521.544 105.744C520.648 106.213 519.795 106.427 518.984 106.384C518.216 106.384 517.555 106.192 517 105.808C516.488 105.381 516.104 104.784 515.848 104.016C515.635 103.248 515.635 102.331 515.848 101.264C516.36 99.6427 517.256 98.064 518.536 96.528C519.816 94.992 521.117 93.6267 522.44 92.432C521.629 92.3893 521.011 92.0053 520.584 91.28C519.048 92.688 517.491 93.9893 515.912 95.184C514.376 96.336 512.52 97.744 510.344 99.408L510.28 95.12Z" fill="#8E8E93"/>
<path d="M256.62 28H246V27.856C248.556 27.856 248.988 27.172 248.988 24.796V6.004C248.988 3.628 248.556 2.944 246 2.944V2.8H256.908C259.86 2.8 262.668 4.6 262.668 7.804C262.668 10.684 260.4 12.304 257.772 12.736C261.624 12.844 263.388 16.912 263.388 20.26C263.388 24.436 261.12 28 256.62 28ZM255.864 12.88H254.316V12.736H254.568C257.52 12.736 259.212 10.396 259.212 7.624C259.212 5.212 257.952 2.944 255.288 2.944C252.732 2.944 252.408 3.808 252.408 6.112V24.796C252.408 27.172 252.84 27.856 255.396 27.856C258.924 27.856 259.896 22.852 259.896 20.116C259.896 17.596 259.176 12.88 255.864 12.88ZM275.14 23.644L272.872 30.052C272.152 32.032 270.568 35.128 268.084 35.128C266.248 35.128 265.132 33.4 265.132 31.708C265.132 30.88 265.348 30.088 265.744 29.368H265.888C265.816 31.096 268.012 32.14 269.488 32.14C270.928 32.14 272.08 31.348 272.692 30.052L273.34 28.252L268.048 13.132C267.328 11.08 267.148 10.144 264.844 10.144V10H282.34V10.144C280 10.144 278.992 12.664 278.344 14.5L275.14 23.608V23.644ZM271.72 13.132L275.068 23.356L278.164 14.5C278.38 13.852 278.56 13.132 278.56 12.448C278.56 10.684 277.3 10.144 275.716 10.144C274.6 10.144 271.396 9.712 271.396 11.548C271.396 12.088 271.54 12.628 271.72 13.132ZM283.072 13.528C283.072 12.448 283.972 11.548 285.052 11.548C286.168 11.548 287.068 12.448 287.068 13.528C287.068 14.644 286.168 15.544 285.052 15.544C283.972 15.544 283.072 14.644 283.072 13.528ZM283.072 26.128C283.072 25.048 283.972 24.148 285.052 24.148C286.168 24.148 287.068 25.048 287.068 26.128C287.068 27.244 286.168 28.144 285.052 28.144C283.972 28.144 283.072 27.244 283.072 26.128Z" fill="#8E8E93"/>
</g>
<defs>
<clipPath id="clip0_1_2">
<rect width="534" height="128" fill="white"/>
</clipPath>
</defs>
</svg>
